HIERARCHY
ROOT Hips
{
	OFFSET 0 0 0
	CHANNELS 6 Xposition Yposition Zposition Yrotation Xrotation Zrotation
	JOINT Spine
	{
		OFFSET -0 7.69132 -2.45161
		CHANNELS 3 Yrotation Xrotation Zrotation
		JOINT Spine1
		{
			OFFSET -0 7.43975 0
			CHANNELS 3 Yrotation Xrotation Zrotation
			JOINT Spine2
			{
				OFFSET -0 7.43975 0
				CHANNELS 3 Yrotation Xrotation Zrotation
				JOINT Spine3
				{
					OFFSET -0 7.43975 0
					CHANNELS 3 Yrotation Xrotation Zrotation
					JOINT Neck
					{
						OFFSET -0 13.9329 3.45161
						CHANNELS 3 Yrotation Xrotation Zrotation
						JOINT Head
						{
							OFFSET -0 9.61415 0
							CHANNELS 3 Yrotation Xrotation Zrotation
							End Site
							{
								OFFSET 0 15 0
							}
						}
					}
					JOINT LeftShoulder
					{
						OFFSET 1.60236 2.19729 3.20472
						CHANNELS 3 Yrotation Xrotation Zrotation
						JOINT LeftArm
						{
							OFFSET 17.7845 0 0
							CHANNELS 3 Yrotation Xrotation Zrotation
							JOINT LeftForeArm
							{
								OFFSET 22.4513 0 0
								CHANNELS 3 Yrotation Xrotation Zrotation
								JOINT LeftHand
								{
									OFFSET 20.5515 0 0
									CHANNELS 3 Yrotation Xrotation Zrotation
									JOINT LeftHandThumb1
									{
										OFFSET 4.91385 0 2.72801
										CHANNELS 3 Yrotation Xrotation Zrotation
										JOINT LeftHandThumb2
										{
											OFFSET 3 0 1
											CHANNELS 3 Yrotation Xrotation Zrotation
											JOINT LeftHandThumb3
											{
												OFFSET 2.1 0 0
												CHANNELS 3 Yrotation Xrotation Zrotation
												JOINT LeftHandThumb4
												{
													OFFSET 1.305 0 0
													CHANNELS 3 Yrotation Xrotation Zrotation
													End Site
													{
														OFFSET -0 0 0
													}
												}
											}
										}
									}
									JOINT LeftHandIndex1
									{
										OFFSET 9.07627 0 3.52715
										CHANNELS 3 Yrotation Xrotation Zrotation
										JOINT LeftHandIndex2
										{
											OFFSET 3.5 0 0
											CHANNELS 3 Yrotation Xrotation Zrotation
											JOINT LeftHandIndex3
											{
												OFFSET 2.45 0 0
												CHANNELS 3 Yrotation Xrotation Zrotation
												JOINT LeftHandIndex4
												{
													OFFSET 1.5225 0 0
													CHANNELS 3 Yrotation Xrotation Zrotation
													End Site
													{
														OFFSET -0 0 0
													}
												}
											}
										}
									}
									JOINT LeftHandMiddle1
									{
										OFFSET 9.21121 0 1.12806
										CHANNELS 3 Yrotation Xrotation Zrotation
										JOINT LeftHandMiddle2
										{
											OFFSET 4.6 0 0
											CHANNELS 3 Yrotation Xrotation Zrotation
											JOINT LeftHandMiddle3
											{
												OFFSET 3.22 0 0
												CHANNELS 3 Yrotation Xrotation Zrotation
												JOINT LeftHandMiddle4
												{
													OFFSET 2.001 0 0
													CHANNELS 3 Yrotation Xrotation Zrotation
													End Site
													{
														OFFSET -0 0 0
													}
												}
											}
										}
									}
									JOINT LeftHandRing1
									{
										OFFSET 9.04616 0 -1.27103
										CHANNELS 3 Yrotation Xrotation Zrotation
										JOINT LeftHandRing2
										{
											OFFSET 3.75 0 0
											CHANNELS 3 Yrotation Xrotation Zrotation
											JOINT LeftHandRing3
											{
												OFFSET 2.625 0 0
												CHANNELS 3 Yrotation Xrotation Zrotation
												JOINT LeftHandRing4
												{
													OFFSET 1.63125 0 0
													CHANNELS 3 Yrotation Xrotation Zrotation
													End Site
													{
														OFFSET -0 0 0
													}
												}
											}
										}
									}
									JOINT LeftHandPinky1
									{
										OFFSET 8.58111 0 -3.67011
										CHANNELS 3 Yrotation Xrotation Zrotation
										JOINT LeftHandPinky2
										{
											OFFSET 2.875 0 0
											CHANNELS 3 Yrotation Xrotation Zrotation
											JOINT LeftHandPinky3
											{
												OFFSET 2.0125 0 0
												CHANNELS 3 Yrotation Xrotation Zrotation
												JOINT LeftHandPinky4
												{
													OFFSET 1.25062 0 0
													CHANNELS 3 Yrotation Xrotation Zrotation
													End Site
													{
														OFFSET -0 0 0
													}
												}
											}
										}
									}
								}
							}
						}
					}
					JOINT RightShoulder
					{
						OFFSET -1.60236 2.19729 3.20472
						CHANNELS 3 Yrotation Xrotation Zrotation
						JOINT RightArm
						{
							OFFSET -17.7845 0 0
							CHANNELS 3 Yrotation Xrotation Zrotation
							JOINT RightForeArm
							{
								OFFSET -22.4513 0 0
								CHANNELS 3 Yrotation Xrotation Zrotation
								JOINT RightHand
								{
									OFFSET -20.5515 0 0
									CHANNELS 3 Yrotation Xrotation Zrotation
									JOINT RightHandThumb1
									{
										OFFSET -4.4694 0 0.364316
										CHANNELS 3 Yrotation Xrotation Zrotation
										JOINT RightHandThumb2
										{
											OFFSET -3 0 1
											CHANNELS 3 Yrotation Xrotation Zrotation
											JOINT RightHandThumb3
											{
												OFFSET -2.1 0 0
												CHANNELS 3 Yrotation Xrotation Zrotation
												JOINT RightHandThumb4
												{
													OFFSET -1.305 0 0
													CHANNELS 3 Yrotation Xrotation Zrotation
													End Site
													{
														OFFSET -0 0 0
													}
												}
											}
										}
									}
									JOINT RightHandIndex1
									{
										OFFSET -7.92682 0 1.55071
										CHANNELS 3 Yrotation Xrotation Zrotation
										JOINT RightHandIndex2
										{
											OFFSET -3.5 0 0
											CHANNELS 3 Yrotation Xrotation Zrotation
											JOINT RightHandIndex3
											{
												OFFSET -2.45 0 0
												CHANNELS 3 Yrotation Xrotation Zrotation
												JOINT RightHandIndex4
												{
													OFFSET -1.5225 0 0
													CHANNELS 3 Yrotation Xrotation Zrotation
													End Site
													{
														OFFSET -0 0 0
													}
												}
											}
										}
									}
									JOINT RightHandMiddle1
									{
										OFFSET -8.23226 0 0.386205
										CHANNELS 3 Yrotation Xrotation Zrotation
										JOINT RightHandMiddle2
										{
											OFFSET -4.6 0 0
											CHANNELS 3 Yrotation Xrotation Zrotation
											JOINT RightHandMiddle3
											{
												OFFSET -3.22 0 0
												CHANNELS 3 Yrotation Xrotation Zrotation
												JOINT RightHandMiddle4
												{
													OFFSET -2.001 0 0
													CHANNELS 3 Yrotation Xrotation Zrotation
													End Site
													{
														OFFSET -0 0 0
													}
												}
											}
										}
									}
									JOINT RightHandRing1
									{
										OFFSET -8.23771 0 -0.778302
										CHANNELS 3 Yrotation Xrotation Zrotation
										JOINT RightHandRing2
										{
											OFFSET -3.75 0 0
											CHANNELS 3 Yrotation Xrotation Zrotation
											JOINT RightHandRing3
											{
												OFFSET -2.625 0 0
												CHANNELS 3 Yrotation Xrotation Zrotation
												JOINT RightHandRing4
												{
													OFFSET -1.63125 0 0
													CHANNELS 3 Yrotation Xrotation Zrotation
													End Site
													{
														OFFSET -0 0 0
													}
												}
											}
										}
									}
									JOINT RightHandPinky1
									{
										OFFSET -7.94315 0 -1.94281
										CHANNELS 3 Yrotation Xrotation Zrotation
										JOINT RightHandPinky2
										{
											OFFSET -2.875 0 0
											CHANNELS 3 Yrotation Xrotation Zrotation
											JOINT RightHandPinky3
											{
												OFFSET -2.0125 0 0
												CHANNELS 3 Yrotation Xrotation Zrotation
												JOINT RightHandPinky4
												{
													OFFSET -1.25062 0 0
													CHANNELS 3 Yrotation Xrotation Zrotation
													End Site
													{
														OFFSET -0 0 0
													}
												}
											}
										}
									}
								}
							}
						}
					}
				}
			}
		}
	}
	JOINT LeftUpLeg
	{
		OFFSET 9.61415 -3.20472 3
		CHANNELS 3 Yrotation Xrotation Zrotation
		JOINT LeftLeg
		{
			OFFSET -0 -42.2921 2.2433
			CHANNELS 3 Yrotation Xrotation Zrotation
			JOINT LeftFoot
			{
				OFFSET -0 -34.6503 -2.2433
				CHANNELS 3 Yrotation Xrotation Zrotation
				JOINT LeftToeBase
				{
					OFFSET -0 -8.30332 8.5187
					CHANNELS 3 Yrotation Xrotation Zrotation
					End Site
					{
						OFFSET 0 0 5
					}
				}
			}
		}
	}
	JOINT RightUpLeg
	{
		OFFSET -9.61415 -3.20472 3
		CHANNELS 3 Yrotation Xrotation Zrotation
		JOINT RightLeg
		{
			OFFSET -0 -42.2921 2.2433
			CHANNELS 3 Yrotation Xrotation Zrotation
			JOINT RightFoot
			{
				OFFSET -0 -34.6503 -2.2433
				CHANNELS 3 Yrotation Xrotation Zrotation
				JOINT RightToeBase
				{
					OFFSET -0 -8.30332 8.5187
					CHANNELS 3 Yrotation Xrotation Zrotation
					End Site
					{
						OFFSET 0 0 5
					}
				}
			}
		}
	}
}
MOTION
Frames: 4
Frame Time: 0.033333
-0.69910 0.99983 0.65224 -35.59093 -18.61321 -46.19157 50.11988 28.57327 126.02169 57.91483 26.66426 104.73225 57.68623 39.86017 103.10179 42.59716 23.81205 113.51082 -98.41856 33.03712 29.70737 -79.47382 27.32119 -42.12599 -20.32364 0.15322 122.10540 -16.48765 -11.98124 87.79868 39.39834 12.79694 -48.30970 -67.22343 -67.03776 -175.45149 51.17882 -4.91901 11.93298 43.43291 22.59866 31.64073 -156.93394 -81.72222 75.27114 14.33664 28.54800 -89.78348 -6.68867 -18.62085 -83.59182 -19.96510 -11.75735 -118.67754 -24.12791 -23.52264 -100.69490 64.52928 33.82733 -89.31671 72.46228 -10.04831 -94.25017 69.50972 -12.39955 -9.46157 34.04537 2.68707 -4.59138 -0.23855 39.48995 -124.50852 -28.89458 34.63510 -103.28439 16.75049 5.28462 -122.61742 27.34114 -5.22502 -107.17036 74.34710 8.29292 25.96510 75.84065 7.78505 23.07758 75.08923 -11.50604 61.48546 76.54707 -9.13264 58.49476 -54.70603 -31.43305 167.07590 -12.44310 31.83334 103.37134 50.78180 -57.28184 48.27472 -58.50376 -45.92570 -92.09220 -55.89101 -37.47141 63.69039 36.82350 59.65683 -67.02903 37.68431 58.28625 -45.22309 45.23780 -35.59724 -104.58981 -33.85267 15.41965 -34.36835 -17.57501 19.37744 -53.14516 -1.60973 -8.20911 -70.73201 20.51818 -19.15180 -56.14826 -13.63194 16.03808 115.36395 30.86895 32.56317 97.64630 10.12909 4.27180 103.78896 46.34956 8.35075 102.16568 -5.13416 14.32045 -60.92745 -15.43252 32.08721 -58.24958 9.64448 33.35423 -57.20038 29.23783 -13.14397 -54.59232 41.34330 -20.41477 -32.18396 40.83427 -18.71184 -33.25162 37.50739 14.53843 -57.75332 38.48202 17.60872 -60.97057 45.78934 19.35488 -18.81529 -48.41175 62.85274 7.35643 59.60525 -54.51543 -6.75108 64.06489 61.49876 73.96012 37.59337 -18.84554 -121.03399 -12.39347 -2.37886 65.00818 29.24469 -2.60586 67.06446 -119.61131 -37.06827 31.07891 37.15681 79.55208 88.84093
-0.24898 0.49211 0.69129 -42.30851 0.26591 -65.28872 47.01838 6.21022 122.26324 38.22768 21.08717 119.17691 37.46041 18.33079 121.45112 35.86022 9.74890 128.02194 -66.31802 4.22485 48.31235 -67.62565 51.36523 -72.78836 -35.95033 -10.44776 127.50800 -7.80472 -36.74077 120.08160 63.28735 -31.93914 36.56283 -84.81057 -45.34754 175.79351 49.64882 -23.16382 35.73367 42.76528 4.58185 18.93257 -121.71385 -6.82842 41.24907 28.46294 -16.99159 -72.50018 -3.99326 -19.24033 -83.16325 -0.47966 -1.06779 -91.51638 -20.68626 -17.82650 -87.15255 24.19553 18.44655 -96.43690 51.88157 -7.60435 -104.24770 60.97949 -21.55962 -54.02628 71.49445 -16.12675 -38.61370 39.29550 24.10314 -153.36760 39.23152 24.09484 -153.43495 35.49777 6.13076 -139.35592 38.42624 -18.28740 -119.05419 74.56096 14.26687 25.19685 72.99845 15.65258 26.44141 62.88824 -2.65563 70.67085 70.20325 3.62779 43.16032 -56.60648 -32.98589 151.60664 -39.84000 39.95236 75.11208 68.08166 5.75623 70.47952 -41.42035 -29.22768 -68.30572 -84.41086 -31.25872 53.59736 72.23939 10.34397 -96.39502 81.75376 13.96777 -72.56368 44.01024 -33.80102 -106.74575 -15.74719 10.54267 -53.20124 -11.62711 14.46328 -51.64763 -11.87025 7.06312 -50.24384 12.15726 -17.36518 -62.31714 -11.66360 10.21893 137.09736 -35.95033 10.44776 142.49200 -22.20227 -1.06510 124.22555 -39.41710 -6.20235 91.63735 7.41536 4.90089 -74.82476 7.07191 15.86387 -81.97259 -9.92634 8.35743 -76.84616 22.94856 5.45294 -81.90545 44.56427 -24.46767 -33.91193 44.44265 -24.46631 -33.69064 39.01064 12.17287 -61.00647 40.55474 14.92161 -66.27954 45.25416 5.78065 -8.79311 144.81878 -67.76532 77.23456 10.42045 -42.67538 -36.14681 62.73838 49.49660 79.12495 41.79069 -18.34694 -109.19978 -7.58161 -2.21613 60.51765 31.26587 17.23179 35.85416 -130.47765 -22.16542 16.83491 14.04733 -14.06286 120.94167
-0.24508 0.49211 0.68348 -42.30847 0.25492 -65.29872 47.13563 6.04019 122.41604 38.17403 20.90957 119.32662 37.45700 18.31735 121.46197 35.84783 9.64863 128.09546 -65.91973 3.98688 48.77492 -67.76762 51.41174 -72.60668 -35.96369 -10.54715 127.43468 -7.74152 -36.84322 119.56837 62.99345 -31.89053 36.07644 -84.67066 -45.34587 175.88137 49.43248 -22.74067 35.24404 42.79326 4.94472 18.59563 -121.52587 -6.44144 39.00310 28.03423 -17.73397 -72.55174 -3.77667 -19.10763 -83.03501 -0.47959 -1.05326 -91.79017 -20.66820 -17.99362 -87.47638 24.33937 18.45781 -96.67106 51.74458 -7.87287 -104.10749 60.82394 -21.60365 -54.29278 71.45670 -16.03187 -38.05947 39.29550 24.10314 -153.36760 39.23152 24.09484 -153.43495 35.50576 6.23412 -139.43008 38.28400 -18.18422 -119.43369 74.91766 13.78296 25.62161 73.28051 15.17443 26.82134 63.58799 -2.58850 70.83089 70.12398 3.51847 43.25200 -56.65153 -33.03156 151.52396 -39.70564 39.98598 75.18177 68.50290 5.37260 69.54037 -41.35333 -29.09136 -68.16816 -83.84272 -31.19239 53.91687 71.93800 10.41848 -96.58859 81.71451 13.94854 -72.59344 43.95546 -33.71609 -106.84434 -15.85069 10.45368 -53.15479 -11.63510 14.61295 -51.61580 -11.76213 7.00607 -50.13182 11.83388 -17.40679 -62.22282 -11.74619 10.36020 137.14149 -35.95700 10.49747 142.52866 -22.48004 -1.04295 124.37982 -39.80091 -6.22476 91.72419 7.47594 5.21759 -74.97506 7.30261 15.96054 -82.10276 -9.41038 9.17817 -76.84260 23.24770 5.75428 -82.02881 44.56427 -24.46767 -33.91193 44.56427 -24.46767 -33.91193 39.03388 12.30507 -61.11610 40.54211 15.10754 -66.27492 45.28168 6.07198 -9.19974 142.85864 -68.88694 75.50758 10.83956 -43.18694 -36.00682 62.54859 49.41260 79.37470 41.77112 -18.81623 -110.25587 -7.45973 -1.98206 60.21304 31.11399 17.41002 36.31122 -130.53157 -22.01065 16.92977 13.02371 -13.67305 120.70099
-0.24996 0.48820 0.68348 -42.30838 0.23295 -65.31873 46.76922 6.22417 122.12571 38.17403 20.90957 119.32662 37.43932 18.24750 121.51831 35.84783 9.64863 128.09546 -66.58180 4.29209 48.14632 -67.76762 51.41174 -72.60668 -35.99077 -10.74558 127.28811 -7.78150 -36.91455 119.79656 63.87680 -32.58333 37.79010 -84.84921 -45.36760 175.57604 49.67676 -23.20692 35.73971 42.79665 4.45802 18.85217 -121.41651 -4.84742 36.54493 27.95080 -18.04741 -72.52325 -3.91538 -18.70354 -82.95081 -0.47497 -1.04208 -92.04436 -20.74840 -18.14657 -88.09827 24.21843 18.31165 -96.98980 51.48304 -7.57661 -104.82157 60.67651 -21.65814 -54.54591 71.41599 -16.17823 -38.70412 39.23152 24.09484 -153.43495 39.23152 24.09484 -153.43495 35.53475 6.59533 -139.68955 38.05250 -17.72665 -120.10230 75.16704 13.52848 26.11460 73.63263 14.76238 27.51422 63.85894 -2.58433 71.66754 70.43128 3.31432 44.01646 -56.50659 -32.88404 151.79038 -39.88741 39.94637 75.13845 68.46663 5.68710 69.27066 -41.28733 -28.95606 -68.03212 -83.96695 -31.01295 54.10250 71.93736 10.29217 -96.35074 81.65312 13.76836 -72.56619 43.95546 -33.71609 -106.84434 -15.78922 10.43785 -53.32569 -11.61651 14.65669 -51.46360 -11.84792 7.04710 -50.11236 11.83989 -17.49803 -62.20277 -11.82887 10.50115 137.18597 -35.99761 10.79511 142.74852 -22.12672 -0.70827 124.67399 -39.75768 -5.58261 92.05488 8.58415 5.42930 -74.90246 7.84718 15.61915 -81.93850 -8.86530 9.04088 -76.95287 24.67096 5.11764 -81.50597 44.56427 -24.46767 -33.91193 44.56427 -24.46767 -33.91193 39.04268 12.35473 -61.15731 40.60016 15.11929 -66.45483 45.19627 5.31417 -8.75067 141.11894 -69.23203 73.73721 10.63699 -42.43531 -35.47151 62.91017 49.57183 78.89915 42.08925 -17.96471 -109.26450 -7.21892 -1.68635 60.25894 29.97346 17.45323 37.46719 -130.60614 -21.81984 16.92157 12.43712 -14.51539 120.84953
